<svg width="20" height="16" viewBox="0 0 20 16" fill="none" xmlns="http://www.w3.org/2000/svg">
<path d="M17.496 0H2.46958C1.12111 0 0 1.02321 0 2.28571V13.7143C0 14.9768 1.12111 16 2.46918 16H17.4956C18.8789 16 20 14.9768 20 13.7143V2.28571C20.0004 1.02321 18.9125 0 17.496 0ZM4.34788 2.28571C5.38525 2.28571 6.22618 3.05321 6.22618 4C6.22618 4.94679 5.42007 5.71429 4.34788 5.71429C3.27568 5.71429 2.46958 4.94679 2.46958 4C2.46958 3.05321 3.34533 2.28571 4.34788 2.28571ZM17.4569 13.4143C17.3473 13.6 17.136 13.7143 16.9051 13.7143H3.20955C3.09399 13.7143 2.98069 13.6851 2.8822 13.6299C2.78371 13.5748 2.70387 13.4958 2.65154 13.4018C2.59915 13.3078 2.5763 13.2023 2.58551 13.0972C2.59472 12.9921 2.63564 12.8913 2.70374 12.8061L5.44293 9.3775C5.56095 9.22857 5.74878 9.14286 5.94835 9.14286C6.14792 9.14286 6.33637 9.23004 6.45431 9.37764L7.72452 10.9673L11.3755 5.99943C11.4932 5.81071 11.6889 5.71429 11.8963 5.71429C12.1037 5.71429 12.3013 5.80971 12.4171 5.96875L17.4259 12.8259C17.5547 13 17.5664 13.225 17.4569 13.4143Z" fill="#1616b5"/>
</svg>
