<svg width="20" height="14" viewBox="0 0 20 14" fill="none" xmlns="http://www.w3.org/2000/svg">
<path d="M18.9905 2.15C18.6868 2.0132 18.3497 1.9687 18.0209 2.02204C17.6922 2.07537 17.3863 2.22419 17.1414 2.45L14.9925 4.45V3C14.9925 2.20435 14.6766 1.44129 14.1143 0.87868C13.5519 0.316071 12.7893 0 11.994 0H2.9985C2.20325 0 1.44057 0.316071 0.878241 0.87868C0.315913 1.44129 0 2.20435 0 3V11C0 11.7956 0.315913 12.5587 0.878241 13.1213C1.44057 13.6839 2.20325 14 2.9985 14H11.994C12.7893 14 13.5519 13.6839 14.1143 13.1213C14.6766 12.5587 14.9925 11.7956 14.9925 11V9.55L17.1514 11.55C17.4693 11.8378 17.8821 11.9981 18.3108 12C18.5488 11.9994 18.7838 11.9483 19.0005 11.85C19.2953 11.7307 19.5478 11.5262 19.7259 11.2625C19.9039 10.9989 19.9994 10.6882 20 10.37V3.63C19.9986 3.31069 19.9016 2.99911 19.7217 2.73536C19.5418 2.47161 19.2872 2.26774 18.9905 2.15V2.15Z" fill="#1616b5"/>
</svg>
